<svg xmlns="http://www.w3.org/2000/svg" viewBox="0 0 180 180"><defs><style>.cls-1{fill:none;}.cls-2{fill:#036;}</style></defs><g id="Layer_2" data-name="Layer 2"><g id="Layer_1-2" data-name="Layer 1"><g id="Layer_2-2" data-name="Layer 2"><g id="Layer_1-2-2" data-name="Layer 1-2"><rect class="cls-1" width="180" height="180"/><path class="cls-2" d="M161.73,107.5a139.75,139.75,0,0,0-17.8,1.56,159.56,159.56,0,0,0-43.18,12.69,188.69,188.69,0,0,0-57.63,40.3,13,13,0,0,1-1.06,1.17.14.14,0,0,1-.05.1l3-28.4a120.65,120.65,0,0,1,13.42-10.2,7.94,7.94,0,0,1,.78-.5c1.32-.86,2.65-1.69,4-2.47a124.29,124.29,0,0,1,11.2-5.88,131.88,131.88,0,0,1,46.9-11.47,148.28,148.28,0,0,1,20.76.14A118.29,118.29,0,0,1,161.73,107.5Z"/><path class="cls-2" d="M111.79,88.21l9.48,9a132.17,132.17,0,0,0-46.9,11.49,45.94,45.94,0,0,1-7.21-3.1A39.63,39.63,0,0,1,51.67,90.78a41.3,41.3,0,0,1-5.61-21.42A40.71,40.71,0,0,1,51.74,48,39.8,39.8,0,0,1,67.3,33.05a45.49,45.49,0,0,1,22.12-5.38,46.36,46.36,0,0,1,18.2,3.5,37.09,37.09,0,0,1,13.91,10.07l-9.73,9.13a28.38,28.38,0,0,0-21.65-9.48,30.23,30.23,0,0,0-14.9,3.63A26.39,26.39,0,0,0,64.9,54.65,30.94,30.94,0,0,0,64.9,84,26.27,26.27,0,0,0,75.22,94.18a30.13,30.13,0,0,0,14.9,3.64A28.19,28.19,0,0,0,111.79,88.21Z"/></g></g></g></g></svg>